<?xml version="1.0" encoding="UTF-8" standalone="no"?>
<!-- Created with Inkscape (http://www.inkscape.org/) -->

<svg
   xmlns:dc="http://purl.org/dc/elements/1.1/"
   xmlns:cc="http://creativecommons.org/ns#"
   xmlns:rdf="http://www.w3.org/1999/02/22-rdf-syntax-ns#"
   xmlns:svg="http://www.w3.org/2000/svg"
   xmlns="http://www.w3.org/2000/svg"
   xmlns:sodipodi="http://sodipodi.sourceforge.net/DTD/sodipodi-0.dtd"
   xmlns:inkscape="http://www.inkscape.org/namespaces/inkscape"
   width="150"
   height="150"
   viewBox="0 0 39.687501 39.687501"
   version="1.1"
   id="svg8"
   inkscape:version="0.92.2 (5c3e80d, 2017-08-06)"
   sodipodi:docname="moon.svg">
  <defs
     id="defs2" />
  <sodipodi:namedview
     id="base"
     pagecolor="#ffffff"
     bordercolor="#666666"
     borderopacity="1.0"
     inkscape:pageopacity="0.0"
     inkscape:pageshadow="2"
     inkscape:zoom="3.959798"
     inkscape:cx="-31.365301"
     inkscape:cy="123.25476"
     inkscape:document-units="px"
     inkscape:current-layer="layer1"
     showgrid="false"
     showguides="false"
     inkscape:window-width="2400"
     inkscape:window-height="1271"
     inkscape:window-x="-9"
     inkscape:window-y="-9"
     inkscape:window-maximized="1"
     units="px" />
  <metadata
     id="metadata5">
    <rdf:RDF>
      <cc:Work
         rdf:about="">
        <dc:format>image/svg+xml</dc:format>
        <dc:type
           rdf:resource="http://purl.org/dc/dcmitype/StillImage" />
        <dc:title></dc:title>
      </cc:Work>
    </rdf:RDF>
  </metadata>
  <g
     inkscape:label="Layer 1"
     inkscape:groupmode="layer"
     id="layer1"
     transform="translate(0,-257.31251)">
    <g
       id="g992"
       transform="matrix(0.16874139,0,0,0.1959003,50.150572,199.44427)">
      <rect
         y="309.3205"
         x="-256.48596"
         height="180.35495"
         width="180.62224"
         id="rect955"
         style="fill:#f6d78f;fill-opacity:1;stroke:none;stroke-width:0.45617789;stroke-linejoin:round;stroke-miterlimit:4;stroke-dasharray:none;stroke-opacity:1" />
      <path
         inkscape:connector-curvature="0"
         id="path951"
         d="m -259.50977,399.23072 v -90.71203 l 40.0829,0.0656 c 22.0456,0.0361 39.23129,0.12425 38.19043,0.19601 -1.06919,0.0737 -1.80115,0.27642 -1.68257,0.46597 0.11959,0.19116 -0.45505,0.33651 -1.33568,0.33785 -2.77726,0.004 -14.0859,2.1679 -14.76685,2.82534 -0.33244,0.32097 -0.0846,0.55269 4.20328,3.93003 4.00114,3.15147 12.25037,11.52802 15.75286,15.99599 4.34379,5.54116 9.22592,13.54676 12.31752,20.19796 4.43964,9.55132 8.08575,22.17029 9.09018,31.46054 0.22124,2.04634 0.55703,5.09405 0.7462,6.7727 0.77731,6.89756 0.13514,20.78394 -1.2599,27.24431 -0.27354,1.26677 -0.99321,4.61533 -1.59925,7.44122 -3.16745,14.76932 -10.40186,29.66829 -20.47478,42.16692 -3.55903,4.41609 -10.51187,11.3497 -14.52193,14.48175 -4.21691,3.29362 -4.53199,3.58002 -4.31678,3.92402 0.32163,0.51413 7.60996,2.08279 11.84913,2.5503 2.17005,0.23931 4.02976,0.5556 4.1327,0.70286 0.10295,0.14726 1.07139,0.32757 2.15211,0.40068 1.0807,0.0731 -16.15309,0.16245 -38.29732,0.1985 l -40.26225,0.0656 z m 23.92324,77.42393 c 0.42263,-0.29243 1.02866,-1.30577 1.34675,-2.25185 1.30378,-3.87781 3.437,-6.02198 7.4568,-7.49506 2.29144,-0.83973 3.14158,-1.74995 3.14158,-3.36362 0,-1.65947 -0.84793,-2.50951 -3.50318,-3.51186 -3.97492,-1.50052 -5.84843,-3.50392 -7.23581,-7.73746 -1.16576,-3.55726 -5.41195,-3.11426 -6.44406,0.6723 -0.93193,3.41907 -3.71493,6.12425 -7.61794,7.40493 -2.0387,0.66896 -2.81765,1.59959 -2.81765,3.36634 0,1.60008 0.95641,2.51794 3.46096,3.32141 3.27667,1.05118 5.25083,3.02627 6.63048,6.63362 0.98561,2.57708 1.90892,3.49296 3.52125,3.49296 0.71083,0 1.63819,-0.23926 2.06082,-0.53171 z m 41.6247,-67.05938 c 0.38813,-0.34106 0.9934,-1.41737 1.34507,-2.39182 0.84576,-2.34351 3.36173,-4.7555 5.83459,-5.59344 2.03248,-0.68871 2.7821,-1.59847 2.43685,-2.95739 -0.16655,-0.65559 -0.85964,-1.15434 -2.84813,-2.04957 -2.91689,-1.31318 -3.92463,-2.36577 -5.37022,-5.60922 -1.59453,-3.57762 -3.88055,-3.67022 -5.11644,-0.20726 -0.91299,2.5582 -3.60394,5.21072 -6.16076,6.07278 -1.35457,0.4567 -1.99543,0.88892 -2.23289,1.50595 -0.60772,1.57908 0.10973,2.49845 2.96765,3.80292 3.00439,1.37132 4.44616,2.85166 5.44207,5.58768 0.85106,2.33811 2.30987,3.06289 3.70221,1.83937 z m -41.62339,-61.56834 c 0.42335,-0.29294 0.96553,-1.13008 1.20483,-1.8603 1.46833,-4.48056 3.58385,-6.66531 7.77966,-8.03425 2.11922,-0.69143 2.95933,-1.61296 2.95933,-3.24613 0,-1.5652 -1.15127,-2.8309 -3.18069,-3.49681 -3.94093,-1.29313 -6.05714,-3.40112 -7.44033,-7.41147 -0.67188,-1.948 -1.61727,-2.7029 -3.38493,-2.7029 -1.61967,0 -2.54877,0.94484 -3.36208,3.41909 -1.05894,3.22147 -3.52873,5.66137 -6.78965,6.70749 -2.50455,0.80347 -3.46096,1.72133 -3.46096,3.32141 0,1.81478 0.73847,2.63527 3.15546,3.50589 3.17407,1.14332 4.91289,2.55464 6.16396,5.00301 0.59533,1.16506 1.08241,2.37427 1.08241,2.68716 0,0.31289 0.4718,1.03498 1.04846,1.60466 1.19064,1.17623 2.94912,1.38567 4.22453,0.50315 z m 67.89848,141.66938 c 5.59497,-0.42505 15.09519,-2.38055 21.16233,-4.35601 23.72696,-7.72547 42.90879,-24.19858 53.804572,-46.20663 3.212017,-6.48786 4.880815,-10.92976 6.639289,-17.67202 1.987739,-7.62134 2.35953,-10.39183 2.579106,-19.21901 0.311356,-12.51646 -0.727438,-20.06587 -4.260257,-30.96117 -4.332415,-13.36127 -12.5386,-26.53639 -22.50067,-36.12507 -11.55726,-11.1241 -24.65839,-18.7919 -39.19316,-22.93892 -4.27026,-1.21838 -12.33747,-2.78583 -17.15516,-3.33325 -1.28229,-0.14571 18.6112,-0.28756 44.20776,-0.31523 l 46.539205,-0.0503 v 90.71203 90.71202 l -46.718545,-0.0619 c -25.6952,-0.034 -45.99221,-0.11709 -45.10447,-0.18453 z"
         style="fill:#ffffff;stroke-width:0.35650718" />
      <path
         id="path967"
         d="m -170.95206,489.85937 c 0.87313,-0.17712 3.5852,-0.64436 6.02684,-1.03831 11.38019,-1.83614 24.73201,-7.09085 34.4229,-13.54739 10.87487,-7.24535 20.84139,-17.56571 27.48349,-28.45921 6.753607,-11.0764 11.675327,-26.16815 12.827837,-39.33473 0.6718,-7.67489 0.3924,-13.57095 -1.08663,-22.93055 -0.83985,-5.31476 -2.99582,-13.13729 -4.58267,-16.62739 -0.60582,-1.33244 -1.39944,-3.28493 -1.76359,-4.33887 -1.17327,-3.39567 -7.540467,-14.61953 -8.919327,-15.72264 -0.24253,-0.19403 -1.40022,-1.70215 -2.57266,-3.35139 -2.80806,-3.95004 -8.90423,-10.31643 -12.73262,-13.29702 -1.68634,-1.31289 -3.30419,-2.66288 -3.59523,-2.99998 -0.9722,-1.12604 -9.30702,-6.44491 -12.7,-8.1045 -11.86728,-5.8046 -18.46581,-7.9633 -28.90545,-9.45643 -2.80111,-0.40063 -5.16913,-0.80461 -5.26227,-0.89774 -0.29327,-0.29328 5.5936,-0.17696 10.00244,0.19763 35.15124,2.98658 64.661997,25.057 77.371807,57.86458 5.43523,14.02987 7.23689,31.36803 4.82372,46.4209 -1.6347,10.19692 -5.69803,21.64294 -10.80777,30.44449 -14.245457,24.53785 -38.299647,40.77206 -66.096097,44.60837 -4.37703,0.60409 -16.55907,1.10256 -13.93472,0.57018 z"
         style="fill:#e9c16e;fill-opacity:1;stroke-width:0.35277781"
         inkscape:connector-curvature="0" />
      <path
         id="path963"
         d="m -118.6798,401.86165 c -1.76522,-0.57485 -4.18664,-2.16432 -4.66834,-3.06437 -0.58508,-1.09322 -0.3846,-2.97837 0.39141,-3.68065 1.00495,-0.90947 2.9339,-0.84629 3.97326,0.13014 1.63795,1.53877 4.72324,1.64074 5.92248,0.19573 0.73085,-0.88062 1.97208,-1.21594 3.02255,-0.81655 2.20596,0.8387 2.56285,3.25675 0.7343,4.97525 -2.42349,2.27763 -6.38788,3.23344 -9.37566,2.26045 z"
         style="fill:#464d57;fill-opacity:1;stroke-width:0.35277781"
         inkscape:connector-curvature="0" />
      <path
         id="path961"
         d="m -138.33615,399.38188 c -0.77666,-0.77666 -0.86591,-1.16009 -0.86591,-3.7202 0,-2.56012 0.0892,-2.94354 0.86591,-3.7202 1.14575,-1.14576 2.96054,-1.16812 4.01149,-0.0494 0.66351,0.70628 0.76705,1.22178 0.76705,3.81906 0,2.68243 -0.0871,3.08437 -0.81649,3.76963 -1.11956,1.05177 -2.85471,1.00848 -3.96205,-0.0989 z"
         style="fill:#464d57;fill-opacity:1;stroke-width:0.35277781"
         inkscape:connector-curvature="0" />
      <path
         id="path959"
         d="m -97.574273,399.54223 c -0.59897,-0.59896 -0.70556,-1.17592 -0.70556,-3.81906 0,-2.79838 0.0826,-3.19114 0.81649,-3.88056 1.11956,-1.05177 2.85471,-1.00848 3.96204,0.0989 0.75664,0.75663 0.86591,1.18177 0.86591,3.3689 0,2.61606 -0.58105,4.32599 -1.6033,4.71827 -1.12012,0.42983 -2.64115,0.20802 -3.33558,-0.48642 z"
         style="fill:#464d57;fill-opacity:1;stroke-width:0.35277781"
         inkscape:connector-curvature="0" />
      <rect
         y="295.39639"
         x="-297.20374"
         height="202.5903"
         width="235.19719"
         id="rect953"
         style="fill:#00ff00;fill-opacity:0;stroke:none;stroke-width:1;stroke-linejoin:round;stroke-miterlimit:4;stroke-dasharray:none;stroke-opacity:1" />
    </g>
  </g>
</svg>
